<?xml version="1.0" encoding="utf-8"?>
<!-- Generator: Adobe Illustrator 21.1.0, SVG Export Plug-In . SVG Version: 6.00 Build 0)  -->
<svg version="1.1" id="Capa_1" xmlns="http://www.w3.org/2000/svg" xmlns:xlink="http://www.w3.org/1999/xlink" x="0px" y="0px"
	 viewBox="0 0 956 442" style="enable-background:new 0 0 956 442;" xml:space="preserve">
<style type="text/css">
	.st0{fill:#FFFFFF;}
</style>
<title>Landing_Fotos</title>
<g>
	
		<image style="overflow:visible;opacity:0.75;" width="928" height="416" xlink:href="3941D36D0878C1BE.png"  transform="matrix(1 0 0 1 20 13.42)">
	</image>
	<g>
		<g>
			<path class="st0" d="M162.2,96c-1-12-6.4-21.5-16.5-28.4c-10.1-6.9-21.9-9.1-35.4-6.5c-27.5,5.2-55,11-82.3,17.2
				c0.8,6.3,1.5,12.5,2.3,18.8c4.1-0.9,8.1-1.8,12.2-2.8C50,157,58.1,219.5,66.8,282c12.7-3,25.5-5.8,38.3-8.5
				c-3.5-28.8-6.9-57.5-10.2-86.3c9-1.9,17.9-3.7,26.9-5.4c12.5-2.3,23.7-9,31.8-18.8c8.5-10.1,12.3-21.1,11.3-33.1
				C163.9,118.6,163,107.3,162.2,96z M119.5,157.4c-3.5,4.5-8.4,7.6-14,8.6c-4.2,0.8-8.4,1.7-12.7,2.6c-3-27.7-5.9-55.5-8.8-83.2
				c4.4-0.9,8.8-1.8,13.2-2.6c6.1-1.2,11.4-0.3,16,2.8c4.4,2.7,7.1,7.3,7.4,12.4c1.3,14.8,2.6,29.7,4,44.5
				C124.9,147.8,123.2,152.7,119.5,157.4z"/>
			<path class="st0" d="M647.3,222.4c7.5,6.7,18.2,10.5,32.4,11.5l5.8,0.4c1.1-6.2,2.1-12.4,3.2-18.7c-8.5-1.8-12.1-7.4-10.6-17.1
				c5.8-35.6,11.7-71.1,17.8-106.7c-17.7-1.3-35.5-2.4-53.2-3.3c-0.9,6.2-1.9,12.5-2.8,18.7c3.9,0.2,7.8,0.4,11.7,0.6
				c-4.5,29.4-8.9,58.8-13.1,88.3C636.8,207,639.9,215.7,647.3,222.4z"/>
			<path class="st0" d="M465.2,210.9c-4.3,0.1-8.6,0.3-12.9,0.5c-10.6,0.4-15.6-5.1-15.2-16.8c1.6-35.6,3.5-71.3,5.4-106.9
				c-8.2,0.3-46.8,2.4-52.9,2.8c-0.2,6.3-0.4,12.6-0.6,18.9c3.7-0.2,7.4-0.5,11.1-0.7c-0.9,27-1.8,54-2.5,81
				c-0.3,13.9,5.1,24.4,16.1,31.7c10,6.6,22.4,9.5,37.6,8.9c4.3-0.2,8.5-0.3,12.8-0.5c-0.5,8.7-1,17.5-1.4,26.2
				c-0.6,11.1-5.6,16.8-15.1,17.2c-12.1,0.5-24.1,1.1-36.2,1.8c-0.2,6.3-0.4,12.6-0.6,18.9c12.7-0.8,25.4-1.4,38.1-2
				c13.7-0.6,25.7-4.9,36-13s16-17.6,16.8-28.7c4.1-54.8,8.6-109.6,13.5-164.3c-13.9,0.1-27.8,0.3-41.8,0.7
				C470.5,128,467.7,169.4,465.2,210.9z"/>
			<path class="st0" d="M576.9,22.2c-3.6,0.2-7.1,0.8-10.6,1.7c-6.4,1.5-12.5,4.1-18,7.7l0,0c0,0-11,10.2-11,10.5
				c-4.1,5.7-6.6,12.5-7.2,19.5c-4,42.4-7.8,84.8-11.4,127.2c-0.9,10.5,2.6,19.4,10.4,26.7c7,6.6,16.1,10.7,27.1,12.5
				c3.5,0.6,9.7,1,18.6,1.1c11.3,0.3,22.3-3.6,30.9-10.9c9.2-7.6,14.5-16.7,16-27.5c-6.7-0.3-13.3-0.5-19.9-0.8
				c-0.7,5.8-3.7,11.1-8.3,14.6c-4.5,3.7-10.1,5.8-15.9,6.1c-6.1,0.2-10.9-1.2-14.3-4.5c-4.3-4-6-9.7-5.1-17.2
				c4.6-43.9,9.5-87.8,14.6-131.7c0.3-4.5,2.2-8.6,5.3-11.9c2.6-2.9,6.4-4.5,10.3-4.4c16.4,0.4,32.9,1,49.3,1.8
				c1-6.2,1.9-12.5,2.8-18.7c-18.5-0.9-37-1.6-55.5-2C582.2,21.9,579.6,22,576.9,22.2z"/>
			<path class="st0" d="M689.2,27.6c-2-0.7-4.1-1.1-6.2-1.2c-5.6-0.5-11.2,1.2-15.7,4.6c-4.2,3.1-6.9,7.9-7.2,13.1
				c-0.4,5.3,1.7,10.5,5.5,14.1c3.9,4,9.2,6.3,14.8,6.6c5.6,0.5,11.2-1.2,15.6-4.7c4.3-3.1,6.9-7.9,7.3-13.1c0.4-5-1.4-9.8-4.8-13.4
				C697.4,31.9,690.6,28,689.2,27.6z"/>
			<path class="st0" d="M782.3,66.7c-8-0.9-39.7-4.1-42.3-4.4c-2.1,10.9-4.1,21.8-6.2,32.8c-5.5-0.5-11-1-16.5-1.5
				c-1.1,6.2-2.3,12.4-3.4,18.6c5.4,0.5,10.9,0.9,16.3,1.4c-5.6,29.3-11,58.7-16.4,88c-2,11.1,0.3,20.1,6.8,26.9
				c5.9,6.4,14.4,10.1,25.6,11.3c4.5,0.5,9.1,1,13.7,1.5c1.3-6.3,2.6-12.5,3.9-18.8c-8.9-1.9-12.3-7.6-10.3-17
				c5.9-29.3,11.9-58.5,18.1-87.7c5.8,0.7,11.7,1.3,17.5,2c1.3-6.2,2.7-12.3,4.1-18.5c-6-0.7-12-1.4-18-2.1
				C777.5,88.4,779.9,77.6,782.3,66.7z"/>
			<path class="st0" d="M232.3,215.1c-3-57.5-5.6-115.1-7.8-172.7c-6.4,0.9-19.1,2.7-19.1,2.7l-10.4,1.5c0,0-16.2,2.5-24.3,3.8
				c0.4,6.3,0.7,12.6,1.1,18.9c3.8-0.6,7.6-1.2,11.3-1.8c2.9,51.3,6.2,102.5,9.8,153.7c0.8,10.9,5.6,18.8,14.3,23.8s20,6.4,34.1,4.4
				l6.4-0.9l-1.1-18.9C237.6,230,232.8,225.2,232.3,215.1z"/>
			<path class="st0" d="M375,203.1c0.6-37.3,1.3-74.5,2.2-111.8c-2.8,0.2-8.5,0.6-8.5,0.6l-10.5,0.8c0,0-35.1,3-52.7,4.8
				c-13.7,1.4-25.7,6-35.9,13.7c-1.7,1.3-7.1,6-8.9,8.5c-5.7,6.7-8.7,15.3-8.4,24.1c0.8,21.1,1.6,42.1,2.6,63.2
				c0.5,12.4,6.4,21.6,17.6,27.8c10.2,5.5,21.7,7.5,34.9,6.1l6.1-0.7c11.1-1.1,21.4-6.2,28.8-14.4c6.9,7.1,17.1,10,30.7,9
				c4.5-0.4,9.1-0.7,13.7-1c0.1-6.3,0.3-12.6,0.4-18.9C378.9,215.1,374.8,211.2,375,203.1z M335.3,198c-0.1,5.9-2.4,11.5-6.5,15.6
				c-4,4.4-9.5,7.2-15.5,7.8c-12.3,1.3-18.5-4.3-18.8-16.9c-0.6-24.2-1.1-48.4-1.5-72.6c-0.2-9.4,4.1-14.6,12.9-15.5
				c9.8-1,19.7-2,29.5-2.9C335.3,141.7,335.2,169.8,335.3,198z"/>
			<path class="st0" d="M884.1,114.2c-10.7,40.2-21.1,80.3-31.2,120.6c-4.3-0.7-8.6-1.3-12.8-2c-10.5-1.6-14.5-8-11.8-19.4
				c8.3-34.7,16.7-69.4,25.3-104c-17.5-2.6-35.1-5-52.7-7.1c-1.4,6.2-2.8,12.3-4.2,18.5c3.7,0.5,7.4,0.9,11.1,1.4
				c-6,26.4-11.8,52.7-17.6,79.1c-2.9,13.6,0.5,25,10,34.2c8.6,8.3,20.3,13.5,35.4,15.8c4.2,0.7,8.5,1.3,12.7,1.9
				c-2.1,8.5-4.2,17-6.3,25.5c-2.7,10.8-8.7,15.4-18.1,14c-12-1.8-24-3.4-36-5c-1.4,6.2-2.7,12.3-4.1,18.5
				c12.7,1.6,25.3,3.3,37.9,5.2c13.7,2,26.2,0,38-6s19.1-14.4,21.9-25.1c14.3-53.1,28.9-106.1,44-159
				C911.8,118.8,897.9,116.4,884.1,114.2z"/>
			<path class="st0" d="M242.8,398c-5.9,5.9-13.3,8.8-22.3,8.8c-4.7,0.1-9.5-0.8-13.9-2.5c-3.8-1.5-7.1-3.8-9.8-6.9
				c-2.5-2.8-4.4-6.1-5.6-9.6c-1.3-3.6-1.9-7.5-1.9-11.3c0-3.9,0.6-7.8,1.9-11.4c1.3-3.6,3.2-7,5.7-9.9c2.7-3.1,6.1-5.5,9.9-7.1
				c4.4-1.8,9-2.7,13.8-2.6c8.2-0.1,16,3.1,21.7,9l-6.4,6.1c-4.1-4-9.6-6.2-15.3-6.1c-7,0-12.5,2.2-16.2,6.5
				c-3.8,4.3-5.8,9.8-5.6,15.5c-0.1,5.6,1.9,11,5.6,15.3c3.7,4.2,9.1,6.3,16.2,6.3c2.9,0,5.8-0.6,8.5-1.7c2.7-1.1,5.2-2.7,7.3-4.7
				L242.8,398z"/>
			<path class="st0" d="M456.1,359.5c-1.5-2.1-3.6-3.8-6-4.8c-2.7-1.2-5.6-1.8-8.6-1.8c-3.5-0.2-6.9,0.7-9.9,2.4
				c-2.4,1.3-3.8,3.8-3.8,6.5c-0.1,2.5,1.4,4.7,3.7,5.7c3.4,1.4,7,2.4,10.7,2.8c3,0.4,6,1,9,1.8c2.6,0.7,5,1.7,7.4,3
				c2.3,1.2,4.3,3.1,5.5,5.4c1.3,2.5,2,5.3,1.9,8.2c0.1,3.9-1.2,7.6-3.7,10.6c-2.4,2.8-5.5,4.9-9,6c-3.9,1.2-7.9,1.8-11.9,1.7
				c-12.1,0-20.6-4.5-25.5-13.5l7.1-4.7c3.8,6.5,10,9.7,18.4,9.7c2.4,0,4.8-0.3,7.1-0.9c2.1-0.5,4-1.6,5.5-3.2
				c1.5-1.5,2.4-3.6,2.3-5.8c0.1-2.8-1.5-5.4-4-6.6c-3.5-1.7-7.3-2.7-11.1-3.1c-2.4-0.3-4.7-0.7-7-1.2c-2.1-0.5-4.1-1.1-6.1-1.9
				c-1.9-0.7-3.7-1.7-5.2-3c-1.4-1.3-2.5-2.9-3.3-4.6c-0.9-2-1.4-4.2-1.3-6.5c-0.1-5.4,2.7-10.4,7.4-13.1c2.3-1.3,4.7-2.3,7.2-3
				c2.7-0.7,5.4-1,8.1-1c10.5,0,17.9,3.3,22.1,10L456.1,359.5z"/>
			<rect x="522.1" y="346.4" class="st0" width="9.4" height="59.2"/>
			<polygon class="st0" points="637,388.6 637,346.4 646.5,346.4 646.5,405.6 639.3,405.6 605.7,363.9 605.7,405.6 596.1,405.6 
				596.1,346.4 603.4,346.4 			"/>
			<path class="st0" d="M712.3,384.3c0.8,2.5,2.1,4.9,3.7,6.9c1.7,2.2,4,3.9,6.6,5.1c2.9,1.3,6.1,2,9.3,1.9c6.9,0,12.2-2.1,15.7-6.2
				c3.5-4.1,5.2-9.3,5.2-15.5c0-3.7-0.7-7.3-2.1-10.7c-1.5-3.4-3.9-6.3-6.9-8.3c-3.5-2.3-7.6-3.5-11.7-3.5c-6.7,0-11.8,2.1-15.5,6.3
				s-5.5,9.6-5.5,16.2C711,379.1,711.5,381.8,712.3,384.3L712.3,384.3z M754.3,354.4c5.2,6,7.9,13.3,7.9,21.9
				c0,3.9-0.6,7.8-1.9,11.5c-1.2,3.6-3.1,6.9-5.5,9.8c-2.6,3-5.8,5.3-9.5,6.8c-4.2,1.7-8.8,2.6-13.4,2.5c-4.6,0.1-9.1-0.8-13.4-2.6
				c-3.7-1.5-6.9-3.9-9.5-6.9c-2.4-2.9-4.3-6.2-5.5-9.7c-1.3-3.7-1.9-7.5-1.9-11.4c0-9,2.9-16.5,8.5-22.3c5.7-5.8,13-8.8,21.9-8.8
				C741.6,345.4,749,348.4,754.3,354.4L754.3,354.4z"/>
			<polygon class="st0" points="331,358.2 312.2,395 312.2,395 305.7,407.4 294,407.4 324.9,348.2 337,348.2 367.9,407.4 
				356.2,407.4 349.6,395 349.6,395 			"/>
		</g>
	</g>
</g>
</svg>
