<?xml version="1.0" encoding="utf-8"?>
<!-- Generator: Adobe Illustrator 21.1.0, SVG Export Plug-In . SVG Version: 6.00 Build 0)  -->
<svg version="1.1" id="Capa_1" xmlns="http://www.w3.org/2000/svg" xmlns:xlink="http://www.w3.org/1999/xlink" x="0px" y="0px"
	 viewBox="0 0 2293.7 495" style="enable-background:new 0 0 2293.7 495;" xml:space="preserve">
<style type="text/css">
	.st0{fill:#789AB7;}
	.st1{fill:#FFFFFF;}
	.st2{fill:url(#SVGID_1_);}
	.st3{fill:url(#SVGID_2_);}
	.st4{fill:url(#SVGID_3_);}
	.st5{fill:url(#SVGID_4_);}
	.st6{fill:url(#SVGID_5_);}
	.st7{fill:url(#SVGID_6_);}
	.st8{fill:url(#SVGID_7_);}
	.st9{fill:url(#SVGID_8_);}
	.st10{fill:url(#SVGID_9_);}
	.st11{fill:url(#SVGID_10_);}
	.st12{fill:url(#SVGID_11_);}
	.st13{fill:url(#SVGID_12_);}
	.st14{fill:url(#SVGID_13_);}
	.st15{fill:url(#SVGID_14_);}
	.st16{fill:url(#SVGID_15_);}
	.st17{fill:url(#SVGID_16_);}
	.st18{fill:url(#SVGID_17_);}
	.st19{fill:url(#SVGID_18_);}
	.st20{fill:url(#SVGID_19_);}
	.st21{fill:url(#SVGID_20_);}
	.st22{fill:url(#SVGID_21_);}
	.st23{fill:url(#SVGID_22_);}
	.st24{fill:url(#SVGID_23_);}
	.st25{fill:url(#SVGID_24_);}
	.st26{fill:url(#SVGID_25_);}
	.st27{fill:url(#SVGID_26_);}
	.st28{fill:url(#SVGID_27_);}
	.st29{fill:url(#SVGID_28_);}
	.st30{fill:url(#SVGID_29_);}
	.st31{fill:url(#SVGID_30_);}
	.st32{fill:url(#SVGID_31_);}
	.st33{fill:url(#SVGID_32_);}
	.st34{fill:url(#SVGID_33_);}
	.st35{fill:url(#SVGID_34_);}
	.st36{fill:url(#SVGID_35_);}
	.st37{fill:url(#SVGID_36_);}
	.st38{fill:url(#SVGID_37_);}
	.st39{fill:url(#SVGID_38_);}
	.st40{fill:url(#SVGID_39_);}
	.st41{fill:url(#SVGID_40_);}
	.st42{fill:url(#SVGID_41_);}
	.st43{fill:url(#SVGID_42_);}
	.st44{fill:url(#SVGID_43_);}
	.st45{fill:url(#SVGID_44_);}
	.st46{fill:url(#SVGID_45_);}
	.st47{fill:url(#SVGID_46_);}
	.st48{fill:url(#SVGID_47_);}
	.st49{fill:url(#SVGID_48_);}
	.st50{fill:url(#SVGID_49_);}
	.st51{fill:url(#SVGID_50_);}
	.st52{fill:url(#SVGID_51_);}
	.st53{fill:url(#SVGID_52_);}
	.st54{fill:url(#SVGID_53_);}
	.st55{fill:url(#SVGID_54_);}
	.st56{fill:url(#SVGID_55_);}
	.st57{fill:url(#SVGID_56_);}
	.st58{fill:url(#SVGID_57_);}
	.st59{fill:url(#SVGID_58_);}
	.st60{fill:url(#SVGID_59_);}
	.st61{fill:url(#SVGID_60_);}
	.st62{fill:url(#SVGID_61_);}
</style>
<title>Landing_Fotos</title>
<g>
	<g>
		<g id="Capa_1_1_">
			<g id="stars">
				<path class="st0" d="M2137.9,146l-1.3,10.4l-1-10.4c-0.3-2.7-2.3-4.8-5-5.1l-10.4-1.3l10.4-1c2.7-0.3,4.8-2.3,5.1-5l1.3-10.4
					l1,10.4c0.3,2.7,2.3,4.8,5,5.1l10.4,1.3l-10.4,1C2140.3,141.3,2138.2,143.3,2137.9,146z"/>
				<path class="st0" d="M1366.7,96l-1.4,10.4l-0.8-10.4c-0.2-2.6-2.2-4.8-4.9-5.2l-10.4-1.4l10.4-0.8c2.6-0.2,4.8-2.2,5.2-4.9
					l1.4-10.4l0.8,10.4c0.2,2.6,2.2,4.8,4.9,5.2l10.4,1.4l-10.4,0.8C1369.2,91.4,1367,93.4,1366.7,96z"/>
				<path class="st0" d="M2280.4,195.1l-1.1,11.1l-1.4-11.1c-0.1-1.2-1.1-2.1-2.3-2.2l-11.1-1.1l11.1-1.4c1.2-0.1,2.1-1.1,2.2-2.3
					l1.1-11.1l1.4,11.1c0.1,1.2,1.1,2.1,2.3,2.2l11.1,1.1l-11.1,1.4C2281.5,193,2280.6,193.9,2280.4,195.1z"/>
				<path class="st0" d="M1848,93.2l-1.9,16.2l-1.7-16.2c-0.2-1.7-1.5-3.1-3.2-3.3L1825,88l16.2-1.7c1.7-0.2,3.1-1.5,3.3-3.2
					l1.9-16.2l1.7,16.2c0.2,1.7,1.5,3.1,3.2,3.3l16.2,1.9l-16.2,1.7C1849.6,90.2,1848.2,91.5,1848,93.2z"/>
				<path class="st0" d="M1827.8,279.7l-0.4,3.1l-0.3-3.1c-0.4-4.1-3.6-7.4-7.8-8l-3.1-0.4l3.1-0.3c4.1-0.4,7.4-3.6,7.9-7.8l0.4-3.1
					l0.3,3.1c0.4,4.1,3.6,7.4,7.8,8l3.1,0.4l-3.1,0.3C1831.7,272.4,1828.4,275.6,1827.8,279.7z"/>
				<path class="st0" d="M1400.5,238.9l-0.3,2.1l-0.2-2.1c-0.3-2.9-2.5-5.2-5.4-5.5l-2.2-0.3l2.2-0.2c2.9-0.3,5.2-2.5,5.5-5.4
					l0.3-2.1l0.2,2.1c0.3,2.9,2.5,5.2,5.4,5.6l2.2,0.3l-2.2,0.2C1403.1,233.8,1400.8,236,1400.5,238.9z"/>
				<path class="st0" d="M680,95.5l-0.3,2.2l-0.2-2.2c-0.3-2.9-2.6-5.2-5.4-5.5l-2.2-0.3l2.2-0.2c2.9-0.3,5.2-2.5,5.5-5.4l0.3-2.2
					l0.2,2.2c0.3,2.9,2.5,5.2,5.4,5.5l2.2,0.3l-2.2,0.2C682.6,90.4,680.4,92.7,680,95.5z"/>
				<path class="st0" d="M1699.7,199.7l-0.4,3.1l-0.3-3.1c-0.4-4.1-3.6-7.4-7.8-7.9l-3.1-0.4l3.1-0.3c4.1-0.4,7.4-3.6,7.9-7.8
					l0.4-3.1l0.3,3.1c0.4,4.1,3.6,7.4,7.8,7.9l3.1,0.4l-3.1,0.3C1703.5,192.4,1700.2,195.6,1699.7,199.7z"/>
				<path class="st0" d="M1590.8,155.2l-0.4,3.1l-0.3-3.1c-0.4-4.1-3.6-7.4-7.8-7.9l-3.1-0.4l3.1-0.3c4.1-0.4,7.4-3.6,7.9-7.8
					l0.4-3.1l0.3,3.1c0.4,4.1,3.6,7.4,7.8,7.9l3.1,0.4l-3.1,0.3C1594.6,147.8,1591.3,151,1590.8,155.2z"/>
				<path class="st0" d="M100,84.8L98.1,101l-1.7-16.2c-0.2-1.7-1.5-3.1-3.2-3.3L77,79.6L93.2,78c1.7-0.2,3.1-1.5,3.3-3.2l1.9-16.2
					l1.7,16.2c0.2,1.7,1.6,3,3.2,3.2l16.2,1.9l-16.2,1.7C101.6,81.7,100.2,83.1,100,84.8z"/>
				<path class="st0" d="M293.5,146.6l-0.4,3.1l-0.3-3.1c-0.4-4.1-3.6-7.4-7.8-7.9l-3.1-0.4l3.1-0.3c4.1-0.4,7.4-3.6,8-7.8l0.4-3.1
					l0.3,3.1c0.4,4.1,3.6,7.4,7.8,7.9l3.1,0.4l-3.1,0.3C297.3,139.3,294,142.5,293.5,146.6z"/>
				<path class="st0" d="M158.8,332.4l-0.4,3.1l-0.3-3.1c-0.4-4.1-3.6-7.4-7.8-8l-3.1-0.4l3.1-0.3c4.1-0.4,7.4-3.6,7.9-7.8l0.4-3.1
					l0.3,3.1c0.4,4.1,3.6,7.4,7.8,8l3.1,0.4l-3.1,0.3C162.6,325,159.3,328.2,158.8,332.4z"/>
				<path class="st0" d="M1168.1,73.6l-1.3-7.9c-0.1-0.6-0.6-1.1-1.2-1.2l-7.9-1.3l7.9-1.3c0.6-0.1,1.1-0.6,1.2-1.2l1.3-7.9l1.3,7.9
					c0.1,0.6,0.6,1.1,1.2,1.2l7.9,1.3l-7.9,1.3c-0.6,0.1-1.1,0.6-1.2,1.2L1168.1,73.6z"/>
				<path class="st0" d="M824,290l-1.2-7.6c-0.3-2-1.9-3.6-3.9-3.9l-7.6-1.2l7.6-1.2c2-0.3,3.6-1.9,3.9-3.9l1.2-7.6l1.2,7.6
					c0.3,2,1.9,3.5,3.8,3.9l7.6,1.2l-7.6,1.2c-2,0.3-3.6,1.9-3.9,3.9L824,290z"/>
				<path class="st0" d="M762.3,335.6l-0.8-4.9c-0.6-3.6-3.5-6.5-7.1-7.1l-4.8-0.8l4.8-0.8c3.6-0.6,6.5-3.5,7.1-7.1l0.8-4.9l0.8,4.9
					c0.6,3.6,3.5,6.5,7.1,7.1l4.8,0.8l-4.8,0.8c-3.6,0.6-6.5,3.5-7.1,7.1L762.3,335.6z"/>
				<path class="st0" d="M500,460.8l0.8,4.7c0.2,1.2,1.2,2.2,2.4,2.4l4.7,0.8l-4.7,0.8c-1.2,0.2-2.2,1.2-2.4,2.4l-0.8,4.7l-0.8-4.7
					c-0.2-1.2-1.2-2.2-2.4-2.4l-4.7-0.8l4.7-0.8c1.2-0.2,2.2-1.2,2.4-2.4L500,460.8z"/>
				<path class="st0" d="M417.8,410.7l0.4,2.1c0.3,1.6,1.5,2.8,3.1,3.1l2.1,0.4l-2.1,0.4c-1.6,0.3-2.8,1.5-3.1,3.1l-0.4,2.1
					l-0.4-2.1c-0.3-1.6-1.5-2.8-3.1-3.1l-2.1-0.4l2.1-0.4c1.6-0.3,2.8-1.5,3.1-3.1L417.8,410.7z"/>
			</g>
			<g id="moon">
				<path class="st1" d="M306.2,464.2c-21.6-21-22.1-55.6-1.1-77.2l0,0l0,0c0.3-0.3,0.2-0.7,0-1c-0.2-0.1-0.4-0.2-0.6-0.2
					c-29.8,4.5-50.3,32.4-45.7,62.2c4.5,29.8,32.4,50.3,62.2,45.7c10.4-1.6,20.2-6.2,28-13.2c0.3-0.2,0.3-0.7,0.1-0.9
					c-0.1-0.2-0.4-0.3-0.6-0.2C332.8,480.7,317.4,475.2,306.2,464.2z"/>
				
					<linearGradient id="SVGID_1_" gradientUnits="userSpaceOnUse" x1="344.6959" y1="758.3657" x2="269.3958" y2="681.2557" gradientTransform="matrix(1 0 0 1 0 -270)">
					<stop  offset="0" style="stop-color:#F3F4F5"/>
					<stop  offset="1" style="stop-color:#E1E4E6"/>
				</linearGradient>
				<path class="st2" d="M307.1,464.9c-21.6-21-22.1-55.6-1.1-77.2l0,0l0,0c0.3-0.3,0.2-0.7,0-1c-0.2-0.1-0.4-0.2-0.6-0.2
					c-29.8,4.5-50.3,32.4-45.7,62.2c4.5,29.8,32.4,50.3,62.2,45.7c10.4-1.6,20.2-6.2,28-13.2c0.3-0.2,0.3-0.7,0.1-0.9
					c-0.1-0.2-0.4-0.3-0.6-0.2C333.7,481.4,318.3,475.8,307.1,464.9z"/>
			</g>
			<g id="clouds">
				<g id="cloud">
					<path class="st1" d="M168.1,209.8l0.1-0.1c3-3.1,5.3-7.7,5.3-11.9c-0.2-5.9-4.3-10.9-10.1-12.1c-0.2,0-0.5-0.1-0.7-0.1
						c-0.6-0.1-1-0.8-0.9-1.4c0-0.3,0-0.5,0-0.8c0-10.7-7.8-22.3-21.1-22.3c-11.2,0-21.9,7.3-24.9,16.1c-0.4,1.7-2,2.7-3.7,2.5
						c-9.3-1.5-21.1,5.1-23.8,15.4c-2.6,9.9,4.6,23.2,16,23.7c1.5,0,2.9,0.3,4.2,1c-0.2,0.9-0.3,1.8-0.3,2.7
						c0,8.9,8.6,16.2,19.2,16.2c7.2,0,13.5-3.4,16.8-8.3c1-0.1,2-0.2,3-0.3C160.1,228.1,169.5,219.1,168.1,209.8L168.1,209.8z"/>
					
						<linearGradient id="SVGID_2_" gradientUnits="userSpaceOnUse" x1="160.3931" y1="496.7571" x2="117.9431" y2="454.0271" gradientTransform="matrix(1 0 0 1 0 -270)">
						<stop  offset="0" style="stop-color:#FFFFFF"/>
						<stop  offset="0.47" style="stop-color:#F1F3F5"/>
						<stop  offset="1" style="stop-color:#E6EAED"/>
					</linearGradient>
					<path class="st3" d="M168.6,210.4l0.1-0.1c3-3.1,5.3-7.7,5.3-11.9c-0.2-5.9-4.3-10.9-10.1-12.1c-0.2,0-0.5-0.1-0.7-0.1
						c-0.6-0.1-1-0.8-0.9-1.4c0-0.3,0-0.5,0-0.8c0-10.7-7.8-22.3-21.1-22.3c-11.2,0-21.9,7.3-24.9,16.1c-0.4,1.7-2,2.7-3.7,2.5
						c-9.3-1.5-21.1,5.1-23.8,15.4c-2.6,9.9,4.6,23.2,16,23.7c1.5,0,2.9,0.3,4.2,1c-0.2,0.9-0.3,1.8-0.3,2.7
						c0,8.9,8.6,16.2,19.2,16.2c7.2,0,13.5-3.4,16.8-8.3c1-0.1,2-0.2,3-0.3C160.5,228.6,170,219.6,168.6,210.4L168.6,210.4z"/>
				</g>
				<g id="cloud-2">
					<path class="st1" d="M2242,377.5c0-0.4,0-0.8,0-1.2c0-14.6-14.2-26.4-31.6-26.4c-16.4,0-29.9,10.5-31.5,23.9
						c-3.5-0.1-6.9,0.4-10.2,1.5c-15.9,5.1-23.2,18.6-19.3,29c2.1,5.2,5.9,9.5,10.9,12.1c2.2,10.4,12.9,18.7,26.3,19.6
						c9.3,0.6,17.8-2.5,23.3-7.8c3.8,2.4,8.5,3.2,12.9,2.1c5.8-1.6,10.3-6,12.1-11.7c11.5,1.3,21.8-6.9,23.2-18.3
						C2259.3,389.7,2252.4,379.9,2242,377.5z"/>
					
						<linearGradient id="SVGID_3_" gradientUnits="userSpaceOnUse" x1="2228.8286" y1="692.5002" x2="2181.0088" y2="643.5401" gradientTransform="matrix(1 0 0 1 0 -270)">
						<stop  offset="0" style="stop-color:#FFFFFF"/>
						<stop  offset="0.47" style="stop-color:#F1F3F5"/>
						<stop  offset="1" style="stop-color:#E6EAED"/>
					</linearGradient>
					<path class="st4" d="M2242.5,378.2c0-0.4,0-0.8,0-1.2c0-14.6-14.2-26.4-31.6-26.4c-16.4,0-29.9,10.5-31.5,23.9
						c-3.5-0.1-6.9,0.4-10.2,1.5c-15.9,5.1-23.2,18.6-19.3,29c2.1,5.2,5.9,9.5,10.9,12.1c2.2,10.4,12.9,18.7,26.3,19.6
						c9.3,0.6,17.8-2.5,23.3-7.8c3.8,2.4,8.5,3.2,12.9,2.1c5.8-1.6,10.3-6,12.1-11.7c11.5,1.3,21.8-6.9,23.1-18.4
						C2259.7,390.3,2252.8,380.6,2242.5,378.2L2242.5,378.2z"/>
				</g>
				<g id="cloud-3">
					<path class="st1" d="M2156.4,355.4c0-15.8-12.8-28.7-28.7-28.7c-2.8,0-5.6,0.4-8.3,1.2c-9.5-9.3-26.3-15.5-45.4-15.5
						c-29.7,0-53.8,14.9-53.8,33.3c0,3.6,0.9,7.2,2.7,10.4c-10.8,5.2-17.7,13.4-17.7,22.5c0,15.8,20.7,28.6,46.2,28.6
						c11.5,0,22-2.6,30.1-6.9c7.3,4.5,18.6,5.4,29.9,1.5c10.9-3.7,19.1-10.8,22.4-18.5C2146.9,380.5,2156.3,368.9,2156.4,355.4z"/>
					
						<linearGradient id="SVGID_4_" gradientUnits="userSpaceOnUse" x1="2122.8977" y1="662.964" x2="2037.0775" y2="605.4739" gradientTransform="matrix(1 0 0 1 0 -270)">
						<stop  offset="0" style="stop-color:#FFFFFF"/>
						<stop  offset="0.47" style="stop-color:#F1F3F5"/>
						<stop  offset="1" style="stop-color:#E6EAED"/>
					</linearGradient>
					<path class="st5" d="M2157.4,355.9c0-15.8-12.8-28.7-28.7-28.7c-2.8,0-5.6,0.4-8.3,1.2c-9.5-9.3-26.3-15.5-45.4-15.5
						c-29.7,0-53.8,14.9-53.8,33.3c0,3.6,0.9,7.2,2.7,10.4c-10.8,5.2-17.7,13.4-17.7,22.5c0,15.8,20.7,28.6,46.2,28.6
						c11.5,0,22-2.6,30.1-6.9c7.3,4.5,18.6,5.4,29.9,1.5c10.9-3.7,19.1-10.8,22.4-18.5C2147.9,381,2157.3,369.4,2157.4,355.9z"/>
				</g>
				<g id="cloud-4">
					<path class="st1" d="M1872.7,96.4c0.5,2.3,1.9,4.3,3.9,5.5c25.6,14.7,3,41.4-35,42.7c-13.8,0.5-26.9-7.1-30.7-15.5
						c-0.8-1.8-2.7-2.8-4.7-2.6c-11.5,1.5-26.1-4.9-29.4-15c-3.2-9.7,5.7-22.6,19.7-23.1c5.2,0,4.8-2.7,4.8-3.6
						c0-8.7,10.6-15.3,23.7-15.8C1849.1,68,1869,79.5,1872.7,96.4z"/>
					
						<linearGradient id="SVGID_5_" gradientUnits="userSpaceOnUse" x1="1860.2864" y1="416.8288" x2="1807.5264" y2="350.6189" gradientTransform="matrix(1 0 0 1 0 -270)">
						<stop  offset="0" style="stop-color:#FFFFFF"/>
						<stop  offset="0.56" style="stop-color:#EAEDEF"/>
						<stop  offset="1" style="stop-color:#DFE3E6"/>
					</linearGradient>
					<path class="st6" d="M1873.4,97c0.5,2.3,1.9,4.3,3.9,5.5c25.6,14.7,3,41.4-35,42.7c-13.8,0.5-26.9-7.1-30.7-15.5
						c-0.8-1.8-2.7-2.8-4.7-2.6c-11.5,1.5-26.1-4.9-29.4-15c-3.2-9.7,5.7-22.6,19.7-23.1c5.2,0,4.8-2.7,4.8-3.6
						c0-8.7,10.6-15.3,23.7-15.8C1849.8,68.7,1869.7,80.2,1873.4,97z"/>
				</g>
			</g>
			<g id="stars-2">
				<path class="st1" d="M2057.6,121.3c-0.2,0.3-0.4,0.5-0.8,0.6c-0.4,0.1-0.7,0.1-1,0.1l-2,0.1c-1.3,0.1-2.6,0.1-3.9,0.1
					s-2.6,0-3.9-0.1c-0.6,0-1.4-0.2-1.8,0c-0.5,0.3-0.7,1-0.4,1.5l0,0c-0.5-0.5-0.5-1.3,0.1-1.8l0.1-0.1c0.3-0.2,0.7-0.3,1.1-0.3
					l1-0.1c1.3-0.1,2.6-0.1,3.9-0.1s2.6,0,3.9,0.1l2,0.1C2056.4,121.7,2057.1,121.9,2057.6,121.3z"/>
				<path class="st1" d="M2047.6,145.7c-0.2,0.6,0.2,1.3,0.8,1.5c0.2,0.1,0.5,0.1,0.7,0l2.5-1l5-1.9l2.5-0.9
					c0.4-0.2,0.8-0.3,1.3-0.5c0.5-0.1,1.1,0,1.5,0.4l4.4,3.1l4.4,3.1c0.3,0.3,0.6,0.5,1,0.6c0.3,0.1,0.6,0,0.8-0.3
					c0.2-0.2,0.2-0.5,0.2-1v-1.3l-0.2-5.4l-0.1-2.7v-1.3v-0.7c0-0.3,0-0.6,0.2-0.9c0.1-0.3,0.3-0.5,0.6-0.7l0.5-0.4l1.1-0.8l2.2-1.6
					l4.3-3.1l1.1-0.8c0.4-0.3,0.6-0.4,0.7-0.7c0.1-0.3-0.1-0.6-0.3-0.8c-0.4-0.2-0.7-0.3-1.1-0.4l-5.1-1.5l-5.1-1.6
					c-0.5-0.1-1-0.4-1.2-0.9s-0.3-0.9-0.4-1.3l-0.8-2.6l-1.6-5.1l-0.8-2.6c-0.2-0.6-0.9-1-1.5-0.8c-0.2,0.1-0.4,0.2-0.6,0.4
					c0.4-0.6,1.2-0.7,1.7-0.3c0.2,0.1,0.4,0.4,0.5,0.6l0.9,2.5l1.8,5l0.9,2.5l0.4,1.2c0.2,0.3,0.5,0.5,0.9,0.6l5.2,1.4l5.2,1.4
					c0.5,0.1,1,0.3,1.4,0.5c0.5,0.4,0.7,1,0.6,1.6c-0.1,0.5-0.5,1-1,1.3l-1.1,0.8l-4.3,3.2l-2.1,1.6l-1.1,0.8l-0.5,0.4
					c-0.1,0.1-0.2,0.2-0.3,0.3s-0.1,0.3-0.1,0.4v0.7v1.3l0.1,2.7l0.1,5.4v1.3c0.1,0.5,0,1.1-0.4,1.6s-1,0.7-1.6,0.5
					c-0.5-0.2-0.9-0.5-1.3-0.8l-4.3-3.2l-4.3-3.2c-0.3-0.3-0.6-0.4-1-0.3l-1.2,0.4l-2.5,0.9l-5.1,1.7l-2.5,0.9
					c-0.7,0.2-1.3-0.2-1.6-0.8C2047.5,146.1,2047.5,145.9,2047.6,145.7z"/>
				
					<linearGradient id="SVGID_6_" gradientUnits="userSpaceOnUse" x1="1945.8677" y1="329.9529" x2="1971.2277" y2="361.8229" gradientTransform="matrix(0.9904 0.1385 -0.1385 0.9904 169.839 -482.9807)">
					<stop  offset="0" style="stop-color:#FFFFFF"/>
					<stop  offset="1" style="stop-color:#E8E8E8"/>
				</linearGradient>
				<path class="st7" d="M2061.4,143.4l9.7,7c0.5,0.4,1.3,0.3,1.7-0.3c0.2-0.2,0.2-0.5,0.2-0.7l-0.4-11.9c0-0.4,0.2-0.8,0.5-1
					l9.6-7.1c0.5-0.4,0.6-1.1,0.3-1.7c-0.2-0.2-0.4-0.4-0.6-0.4L2071,124c-0.4-0.1-0.7-0.4-0.8-0.8l-3.7-11.3
					c-0.2-0.6-0.9-1-1.5-0.8c-0.3,0.1-0.5,0.3-0.6,0.5l-6.7,9.8c-0.2,0.3-0.6,0.5-1,0.5l-11.9,0.1c-0.7,0-1.2,0.5-1.2,1.2
					c0,0.3,0.1,0.5,0.3,0.7l7.3,9.4c0.2,0.3,0.3,0.7,0.2,1.1l-3.6,11.4c-0.2,0.6,0.1,1.3,0.8,1.5c0.3,0.1,0.5,0.1,0.8,0l11.2-4
					C2060.7,143.1,2061.1,143.2,2061.4,143.4z"/>
				<path class="st1" d="M637.9,109.9c-0.2,0.1-0.5,0.2-0.7,0.1s-0.4-0.2-0.6-0.3l-1.2-0.6c-0.8-0.4-1.6-0.9-2.4-1.4s-1.6-1-2.3-1.5
					c-0.4-0.2-0.7-0.6-1.1-0.6c-0.4,0-0.8,0.3-0.8,0.7l0,0c-0.1-0.5,0.2-1,0.7-1.1h0.1c0.3,0,0.5,0.1,0.8,0.2l0.6,0.3
					c0.8,0.4,1.6,0.9,2.4,1.4s1.6,1,2.3,1.5l1.1,0.8C637.1,109.8,637.4,110.1,637.9,109.9z"/>
				<path class="st1" d="M623,120.8c-0.3,0.3-0.4,0.8-0.1,1.2c0.1,0.1,0.3,0.2,0.5,0.3l1.8,0.3l3.7,0.7l1.8,0.4
					c0.3,0.1,0.6,0.1,0.9,0.2c0.4,0.1,0.6,0.4,0.7,0.8l1.5,3.4l1.5,3.4c0.1,0.3,0.2,0.5,0.4,0.8c0.1,0.2,0.4,0.2,0.6,0.1
					c0.2-0.1,0.3-0.2,0.5-0.5l0.5-0.8l1.9-3.2l0.9-1.6l0.5-0.8l0.2-0.4c0.2-0.4,0.6-0.6,1-0.6h0.5l0.9-0.1l1.9-0.1l3.7-0.3l0.9-0.1
					c0.3,0,0.5,0,0.7-0.2c0.1-0.2,0.2-0.4,0.1-0.6c-0.1-0.2-0.3-0.4-0.5-0.6l-2.5-2.8l-2.5-2.8c-0.3-0.3-0.4-0.6-0.4-1
					c0.1-0.3,0.2-0.6,0.2-0.9l0.5-1.8l1-3.6l0.5-1.8c0.1-0.4-0.1-0.9-0.5-1c-0.2-0.1-0.4-0.1-0.6,0c0.4-0.2,0.9,0,1.1,0.4
					c0.1,0.2,0.1,0.4,0.1,0.6l-0.4,1.8l-0.8,3.7l-0.4,1.8l-0.2,0.9c0,0.3,0.1,0.5,0.3,0.7l2.5,2.8l2.5,2.8c0.2,0.2,0.5,0.5,0.6,0.8
					c0.2,0.4,0.1,0.9-0.2,1.2c-0.3,0.3-0.6,0.4-1,0.4l-0.9,0.1l-3.7,0.3l-1.9,0.2l-0.9,0.1h-0.5c-0.1,0-0.2,0-0.3,0.1
					s-0.2,0.1-0.2,0.2l-0.2,0.4l-0.5,0.8l-0.9,1.6l-1.9,3.2l-0.5,0.8c-0.1,0.4-0.4,0.6-0.8,0.8c-0.4,0.1-0.9,0-1.2-0.3
					c-0.2-0.3-0.4-0.6-0.5-0.9l-1.4-3.5l-1.4-3.4c0-0.3-0.2-0.5-0.5-0.6l-0.9-0.2l-1.8-0.4l-3.6-0.8l-1.8-0.4
					c-0.5-0.1-0.8-0.6-0.7-1C622.7,121.1,622.8,120.9,623,120.8z"/>
				
					<linearGradient id="SVGID_7_" gradientUnits="userSpaceOnUse" x1="355.4555" y1="1090.5945" x2="373.1555" y2="1112.8445" gradientTransform="matrix(0.769 0.6393 -0.6393 0.769 1060.9806 -963.0263)">
					<stop  offset="0" style="stop-color:#FFFFFF"/>
					<stop  offset="1" style="stop-color:#E8E8E8"/>
				</linearGradient>
				<path class="st8" d="M632.1,124.4l3.2,7.7c0.2,0.4,0.7,0.6,1.1,0.5c0.2-0.1,0.3-0.2,0.4-0.4l4.2-7.2c0.1-0.2,0.4-0.4,0.7-0.4
					l8.3-0.7c0.5,0,0.8-0.4,0.8-0.9c0-0.2-0.1-0.4-0.2-0.5l-5.6-6.2c-0.2-0.2-0.3-0.5-0.2-0.8l1.9-8.1c0.1-0.4-0.1-0.9-0.6-1
					c-0.2-0.1-0.4,0-0.6,0l-7.6,3.4c-0.3,0.1-0.5,0.1-0.8-0.1l-7.1-4.3c-0.4-0.2-0.9-0.1-1.2,0.3c-0.1,0.2-0.1,0.3-0.1,0.5l0.9,8.3
					c0,0.3-0.1,0.5-0.3,0.7l-6.4,5.5c-0.4,0.3-0.4,0.8-0.1,1.2c0.1,0.1,0.3,0.2,0.5,0.3l8.1,1.7C631.8,124,632,124.2,632.1,124.4z"
					/>
				<path class="st1" d="M164.3,272.9c0,0.3-0.1,0.5-0.3,0.7s-0.4,0.3-0.6,0.5l-1.2,0.8c-0.8,0.5-1.6,1-2.4,1.6s-1.7,1-2.5,1.4
					c-0.4,0.2-0.9,0.4-1.1,0.7c-0.2,0.4-0.1,0.9,0.3,1.1l0,0c-0.5-0.2-0.8-0.7-0.6-1.3l0,0c0.1-0.3,0.3-0.5,0.6-0.6l0.6-0.4
					c0.8-0.5,1.6-1,2.4-1.6s1.7-1,2.5-1.4l1.3-0.7C163.7,273.5,164.2,273.4,164.3,272.9z"/>
				<path class="st1" d="M167.2,292c0.1,0.5,0.6,0.7,1.1,0.6c0.2,0,0.3-0.1,0.4-0.3l1.2-1.5l2.4-3.1l1.2-1.5
					c0.2-0.3,0.4-0.5,0.6-0.8c0.3-0.3,0.7-0.4,1.1-0.3l3.9,0.3l3.9,0.3c0.3,0,0.6,0,0.9,0c0.2-0.1,0.4-0.2,0.4-0.5
					c0-0.2-0.1-0.4-0.3-0.7l-0.5-0.8l-2.1-3.3l-1.1-1.7l-0.5-0.8l-0.3-0.4c-0.1-0.2-0.2-0.4-0.2-0.6s0-0.4,0.1-0.6l0.2-0.5l0.4-0.9
					l0.8-1.8l1.6-3.6l0.4-0.9c0.1-0.3,0.2-0.5,0.1-0.7c-0.1-0.2-0.3-0.4-0.5-0.4c-0.3,0-0.6,0.1-0.9,0.2l-3.8,1l-3.8,0.9
					c-0.4,0.1-0.8,0.1-1.1-0.1s-0.5-0.4-0.8-0.7l-1.5-1.3l-2.9-2.6l-1.5-1.3c-0.4-0.3-0.9-0.3-1.2,0.1c-0.1,0.1-0.2,0.3-0.2,0.5
					c0-0.5,0.5-0.9,1-0.8c0.2,0,0.4,0.1,0.5,0.2l1.5,1.3l3,2.5l1.5,1.3l0.7,0.6c0.2,0.1,0.5,0.1,0.8,0l3.8-1l3.8-1
					c0.3-0.1,0.7-0.2,1.1-0.2c0.5,0,0.8,0.3,1,0.8c0.1,0.4,0.1,0.8-0.1,1.2l-0.4,0.9l-1.5,3.6l-0.8,1.8l-0.4,0.9l-0.2,0.5
					c-0.1,0.1-0.1,0.2-0.1,0.3c0,0.1,0.1,0.2,0.1,0.3l0.3,0.4l0.5,0.8l1,1.7l2.1,3.3l0.5,0.8c0.3,0.3,0.4,0.7,0.3,1.1
					c-0.1,0.4-0.4,0.8-0.8,0.9c-0.4,0.1-0.7,0.1-1.1,0l-3.9-0.4l-3.9-0.4c-0.3-0.1-0.6,0-0.8,0.2l-0.6,0.7l-1.3,1.5l-2.6,3l-1.3,1.5
					c-0.4,0.3-0.9,0.3-1.3,0C167.3,292.3,167.2,292.2,167.2,292z"/>
				
					<linearGradient id="SVGID_8_" gradientUnits="userSpaceOnUse" x1="414.3036" y1="55.1313" x2="432.9236" y2="78.5412" gradientTransform="matrix(0.9224 -0.3862 0.3862 0.9224 -246.0866 379.2115)">
					<stop  offset="0" style="stop-color:#FFFFFF"/>
					<stop  offset="1" style="stop-color:#E8E8E8"/>
				</linearGradient>
				<path class="st9" d="M175,285.3l8.7,0.8c0.5,0,0.9-0.3,1-0.8c0-0.2,0-0.4-0.1-0.6l-4.7-7.4c-0.2-0.2-0.2-0.6-0.1-0.8l3.4-8.1
					c0.2-0.4,0-1-0.5-1.2c-0.2-0.1-0.4-0.1-0.5,0l-8.5,2.2c-0.3,0.1-0.6,0-0.8-0.2l-6.6-5.7c-0.4-0.3-0.9-0.3-1.2,0.1
					c-0.1,0.1-0.2,0.3-0.2,0.5l-0.5,8.7c0,0.3-0.2,0.6-0.4,0.7l-7.5,4.5c-0.4,0.2-0.6,0.8-0.3,1.2c0.1,0.2,0.3,0.3,0.4,0.4l8.1,3.2
					c0.3,0.1,0.5,0.3,0.5,0.6l2,8.5c0.1,0.5,0.6,0.8,1.1,0.7c0.2,0,0.4-0.1,0.5-0.3l5.6-6.8C174.5,285.4,174.7,285.3,175,285.3z"/>
				<path class="st1" d="M2028.4,83.6c-0.1,0.1-0.3,0.2-0.4,0.2c-0.2,0-0.3-0.1-0.5-0.1l-0.9-0.2c-0.6-0.1-1.2-0.3-1.7-0.5
					s-1.2-0.4-1.7-0.6c-0.3-0.1-0.6-0.3-0.8-0.2c-0.3,0.1-0.5,0.3-0.4,0.6l0,0c-0.1-0.3,0-0.7,0.3-0.8l0,0c0.2-0.1,0.3-0.1,0.5,0
					l0.4,0.1c0.6,0.1,1.2,0.3,1.7,0.5s1.2,0.4,1.7,0.6l0.8,0.3C2027.8,83.6,2028.1,83.8,2028.4,83.6z"/>
				<path class="st1" d="M2020.6,92.9c-0.2,0.2-0.1,0.6,0.1,0.8c0.1,0.1,0.2,0.1,0.3,0.1l1.2-0.1l2.5-0.1l1.2-0.1h0.6
					c0.2,0,0.5,0.2,0.6,0.4l1.5,2l1.5,2c0.1,0.2,0.2,0.3,0.3,0.4c0.1,0.1,0.3,0.1,0.4,0s0.2-0.2,0.2-0.4l0.2-0.6l0.7-2.4l0.3-1.2
					l0.2-0.6l0.1-0.3c0-0.1,0.1-0.3,0.2-0.4s0.2-0.2,0.3-0.2l0.3-0.1l0.6-0.2l1.2-0.4l2.3-0.8l0.6-0.2c0.2-0.1,0.3-0.1,0.4-0.2
					s0.1-0.3,0-0.4s-0.3-0.2-0.4-0.3l-2-1.4l-2-1.4c-0.2-0.1-0.4-0.3-0.4-0.6c0-0.2,0-0.4,0-0.6v-1.3v-2.5v-1.2
					c0-0.3-0.2-0.5-0.5-0.5c-0.1,0-0.2,0-0.3,0.1c0.2-0.2,0.6-0.1,0.8,0.1c0.1,0.1,0.1,0.2,0.1,0.3v1.2l0.1,2.5v1.2v0.6
					c0,0.2,0.2,0.3,0.3,0.4l2.1,1.3l2.1,1.3c0.2,0.1,0.4,0.3,0.5,0.4c0.1,0.2,0.1,0.5,0,0.8c-0.1,0.2-0.4,0.4-0.6,0.4l-0.6,0.2
					l-2.3,0.8l-1.2,0.4l-0.6,0.2l-0.3,0.1c-0.1,0-0.1,0.1-0.2,0.1c0,0.1-0.1,0.1-0.1,0.2l-0.1,0.3l-0.2,0.6l-0.3,1.2l-0.7,2.4
					l-0.2,0.6c0,0.3-0.2,0.5-0.4,0.6c-0.2,0.1-0.5,0.1-0.8,0c-0.2-0.1-0.3-0.3-0.4-0.5l-1.5-2L2027,94c-0.1-0.2-0.2-0.3-0.4-0.3
					h-0.6h-1.2h-2.5h-1.2c-0.3,0-0.5-0.3-0.5-0.6C2020.6,93,2020.6,92.9,2020.6,92.9z"/>
				
					<linearGradient id="SVGID_9_" gradientUnits="userSpaceOnUse" x1="1720.2325" y1="230.787" x2="1731.8926" y2="245.437" gradientTransform="matrix(0.9021 0.4315 -0.4315 0.9021 574.5058 -871.251)">
					<stop  offset="0" style="stop-color:#FFFFFF"/>
					<stop  offset="1" style="stop-color:#E8E8E8"/>
				</linearGradient>
				<path class="st10" d="M2027,93.8l3.3,4.4c0.2,0.3,0.5,0.3,0.8,0.2c0.1-0.1,0.2-0.2,0.2-0.3l1.5-5.3c0-0.2,0.2-0.3,0.3-0.4
					l5.2-1.8c0.3-0.1,0.5-0.4,0.4-0.7c0-0.1-0.1-0.2-0.2-0.3l-4.6-3.1c-0.2-0.1-0.2-0.3-0.2-0.4l-0.1-5.5c0-0.3-0.2-0.5-0.6-0.5
					c-0.1,0-0.2,0-0.3,0.1l-4.3,3.4c-0.1,0.1-0.3,0.1-0.5,0.1l-5.2-1.6c-0.3-0.1-0.6,0.1-0.7,0.4c0,0.1,0,0.2,0,0.4l1.9,5.1
					c0.1,0.2,0,0.4-0.1,0.5l-3.2,4.5c-0.2,0.2-0.1,0.6,0.1,0.8c0.1,0.1,0.2,0.1,0.3,0.1l5.5-0.2C2026.8,93.5,2026.9,93.6,2027,93.8z
					"/>
				<g id="star">
					<path class="st1" d="M1421.5,151c0.1,0.3,0.1,0.6,0,0.9c-0.2,0.3-0.3,0.5-0.5,0.7l-1,1.4c-0.7,0.9-1.4,1.8-2.1,2.6
						s-1.5,1.7-2.3,2.5c-0.3,0.4-0.9,0.8-1,1.2c-0.1,0.5,0.3,1,0.8,1.1c-0.6,0-1.1-0.4-1.2-1.1v-0.1c0-0.3,0.2-0.6,0.4-0.9l0.5-0.7
						c0.7-0.9,1.4-1.8,2.1-2.6s1.5-1.7,2.3-2.5l1.2-1.2C1421.1,151.9,1421.6,151.6,1421.5,151z"/>
					<path class="st1" d="M1431.9,171.1c0.3,0.5,0.9,0.6,1.4,0.3c0.2-0.1,0.4-0.3,0.4-0.5l0.8-2.2l1.5-4.4l0.8-2.2
						c0.1-0.4,0.2-0.7,0.4-1.1c0.2-0.4,0.6-0.7,1.1-0.7l4.5-1.2l4.5-1.1c0.3-0.1,0.7-0.2,1-0.3c0.2-0.2,0.3-0.4,0.3-0.7
						s-0.2-0.4-0.6-0.7l-0.9-0.7l-3.6-2.9l-1.8-1.4l-0.9-0.7l-0.4-0.4c-0.4-0.3-0.7-0.8-0.6-1.3v-0.6l0.1-1.1l0.2-2.3l0.3-4.6
						l0.1-1.1c0-0.4,0.1-0.6-0.1-0.9c-0.2-0.2-0.4-0.3-0.7-0.2c-0.3,0.1-0.6,0.3-0.9,0.5l-3.9,2.5l-3.9,2.5
						c-0.4,0.3-0.8,0.4-1.3,0.3c-0.4-0.1-0.7-0.3-1.1-0.4l-2.1-0.9l-4.2-1.8l-2.1-0.9c-0.5-0.2-1.1,0-1.3,0.5
						c-0.1,0.2-0.1,0.5,0,0.7c-0.2-0.6,0.2-1.2,0.8-1.3c0.2-0.1,0.4,0,0.7,0l2.2,0.8l4.3,1.6l2.2,0.8l1,0.4c0.3,0.1,0.6,0,0.9-0.3
						l3.8-2.6l3.8-2.6c0.3-0.3,0.7-0.5,1.1-0.6c0.5-0.1,1,0.1,1.4,0.5c0.3,0.4,0.4,0.9,0.3,1.4l-0.1,1.1l-0.3,4.6l-0.2,2.3l-0.1,1.1
						v0.6c0,0.1,0,0.3,0,0.4c0.1,0.1,0.1,0.2,0.2,0.3l0.4,0.4l0.9,0.7l1.8,1.4l3.6,2.9l0.9,0.7c0.4,0.2,0.7,0.7,0.8,1.1
						c0.1,0.5-0.1,1-0.6,1.3c-0.4,0.2-0.8,0.3-1.2,0.4l-4.5,1.1l-4.5,1.1c-0.3,0-0.6,0.2-0.8,0.5l-0.4,1l-0.8,2.1l-1.7,4.3l-0.9,2.1
						c-0.2,0.5-0.9,0.8-1.4,0.5C1432.2,171.4,1432.1,171.3,1431.9,171.1z"/>
					
						<linearGradient id="SVGID_10_" gradientUnits="userSpaceOnUse" x1="1919.7441" y1="405.2726" x2="1941.5741" y2="432.7025" gradientTransform="matrix(0.75 -0.66 0.66 0.75 -298.7401 1112.6801)">
						<stop  offset="0" style="stop-color:#FFFFFF"/>
						<stop  offset="1" style="stop-color:#E8E8E8"/>
					</linearGradient>
					<path class="st11" d="M1438.1,160.7l10-2.5c0.5-0.1,0.9-0.6,0.8-1.2c0-0.3-0.2-0.5-0.4-0.7l-8-6.4c-0.3-0.2-0.4-0.5-0.4-0.9
						l0.7-10.2c0.1-0.5-0.3-1.1-0.8-1.1c-0.3,0-0.5,0-0.8,0.2l-8.6,5.6c-0.3,0.2-0.7,0.2-1,0.1l-9.5-3.9c-0.5-0.2-1.1,0-1.3,0.4
						c-0.1,0.2-0.1,0.5,0,0.8l2.7,9.9c0.1,0.3,0,0.7-0.2,0.9l-6.6,7.8c-0.4,0.4-0.4,1,0,1.4c0.2,0.2,0.5,0.3,0.7,0.3l10.2,0.5
						c0.3,0,0.7,0.2,0.8,0.5l5.4,8.7c0.3,0.5,0.9,0.7,1.3,0.4c0.2-0.1,0.4-0.3,0.5-0.6l3.6-9.6
						C1437.5,161,1437.8,160.8,1438.1,160.7z"/>
				</g>
				<path class="st1" d="M572.9,137.8c-0.1,0.4-0.4,0.7-0.8,0.8c-0.4,0.1-0.7,0.2-1.1,0.3l-2.2,0.5c-1.5,0.3-2.9,0.5-4.4,0.8
					s-3,0.4-4.4,0.5c-0.7,0.1-1.6,0-2,0.3c-0.6,0.4-0.7,1.2-0.2,1.8l0,0c-0.6-0.5-0.7-1.4-0.2-2.1l0.1-0.1c0.3-0.3,0.7-0.5,1.2-0.5
					l1.1-0.2c1.5-0.3,2.9-0.5,4.4-0.8s3-0.4,4.4-0.5l2.2-0.2C571.7,138.3,572.5,138.4,572.9,137.8z"/>
				<path class="st1" d="M565.6,166.7c-0.1,0.7,0.4,1.4,1.1,1.5c0.3,0.1,0.6,0,0.9-0.2l2.7-1.5l5.3-2.9l2.7-1.4
					c0.5-0.2,0.8-0.5,1.4-0.7c0.6-0.2,1.2-0.1,1.7,0.2l5.4,2.8l5.4,2.8c0.4,0.2,0.8,0.4,1.2,0.6c0.3,0,0.7-0.1,0.9-0.4
					c0.2-0.3,0.2-0.6,0-1.1l-0.3-1.5l-1-6l-0.5-3l-0.3-1.5l-0.1-0.8c-0.1-0.3-0.1-0.7,0-1s0.3-0.6,0.5-0.8l0.5-0.5l1.1-1.1l2.2-2.1
					l4.4-4.2l1.1-1.1c0.4-0.4,0.6-0.6,0.6-0.9c0-0.3-0.2-0.6-0.4-0.8c-0.4-0.1-0.9-0.2-1.3-0.3l-6-0.9l-6-0.9
					c-0.6,0-1.2-0.3-1.5-0.8s-0.5-0.9-0.7-1.4l-1.3-2.7l-2.6-5.5l-1.3-2.8c-0.3-0.7-1.1-0.9-1.8-0.6c-0.3,0.1-0.5,0.3-0.6,0.6
					c0.3-0.7,1.2-1,1.9-0.6c0.3,0.1,0.5,0.4,0.6,0.6l1.4,2.7l2.8,5.4l1.4,2.7l0.7,1.3c0.3,0.3,0.7,0.5,1.1,0.5l6,0.8l6,0.8
					c0.6,0,1.1,0.2,1.6,0.4c0.6,0.3,1,1,0.9,1.7c-0.1,0.6-0.4,1.2-0.9,1.6l-1.1,1.1l-4.3,4.3l-2.2,2.1l-1,1.1l-0.5,0.5
					c-0.1,0.1-0.2,0.3-0.3,0.4c0,0.2,0,0.3,0,0.5l0.1,0.8l0.2,1.5l0.5,3l1,6l0.2,1.5c0.2,0.6,0.1,1.3-0.2,1.8
					c-0.4,0.6-1.1,0.9-1.8,0.8c-0.5-0.1-1.1-0.4-1.5-0.7l-5.4-2.9l-5.3-2.9c-0.3-0.3-0.8-0.4-1.2-0.2l-1.3,0.7l-2.7,1.4l-5.4,2.7
					l-2.7,1.4c-0.7,0.4-1.5,0.1-1.9-0.6C565.5,167.4,565.5,167.1,565.6,166.7z"/>
				
					<linearGradient id="SVGID_11_" gradientUnits="userSpaceOnUse" x1="564.6212" y1="399.765" x2="593.4011" y2="435.9349" gradientTransform="matrix(1 0 0 1 0 -270)">
					<stop  offset="0" style="stop-color:#FFFFFF"/>
					<stop  offset="1" style="stop-color:#E8E8E8"/>
				</linearGradient>
				<path class="st12" d="M580.8,161.9l12,6.3c0.7,0.4,1.5,0.1,1.9-0.5c0.2-0.3,0.2-0.6,0.1-0.9l-2.3-13.3c-0.1-0.4,0.1-0.9,0.4-1.2
					l9.7-9.4c0.5-0.5,0.6-1.4,0-1.9c-0.2-0.2-0.5-0.4-0.8-0.4l-13.4-1.9c-0.4-0.1-0.8-0.4-1-0.8l-6-12.1c-0.3-0.7-1.1-1-1.8-0.6
					c-0.3,0.1-0.5,0.4-0.6,0.6l-6,12.1c-0.2,0.4-0.6,0.7-1,0.8l-13.4,1.9c-0.7,0.1-1.3,0.8-1.2,1.5c0,0.3,0.2,0.6,0.4,0.8l9.7,9.4
					c0.3,0.3,0.5,0.8,0.4,1.2l-2.3,13.3c-0.1,0.7,0.3,1.4,1.1,1.6c0.3,0.1,0.6,0,0.9-0.1l12-6.3C580,161.7,580.4,161.7,580.8,161.9z
					"/>
				<path class="st1" d="M1867,190.3c-0.1,0.2-0.3,0.3-0.6,0.3c-0.2,0-0.4,0-0.7,0l-1.3-0.1c-0.9-0.1-1.7-0.2-2.6-0.4
					s-1.7-0.3-2.5-0.5c-0.4-0.1-0.9-0.3-1.2-0.2c-0.4,0.1-0.6,0.5-0.5,0.9v0.1c-0.3-0.4-0.2-0.9,0.2-1.2h0.1
					c0.2-0.1,0.5-0.1,0.7-0.1l0.6,0.1c0.9,0.1,1.7,0.2,2.6,0.4s1.7,0.3,2.5,0.5l1.3,0.3C1866.3,190.4,1866.7,190.6,1867,190.3z"/>
				<path class="st1" d="M1857.9,204.9c-0.2,0.4,0,0.9,0.4,1c0.1,0.1,0.3,0.1,0.5,0.1l1.7-0.3l3.4-0.7l1.7-0.3
					c0.3-0.1,0.6-0.1,0.9-0.2c0.4,0,0.7,0.2,0.9,0.4l2.5,2.5l2.5,2.5c0.2,0.2,0.4,0.4,0.6,0.5s0.4,0,0.6-0.1s0.2-0.3,0.2-0.6
					l0.1-0.9l0.5-3.5l0.2-1.7l0.1-0.9l0.1-0.4c0-0.4,0.3-0.7,0.7-0.9l0.4-0.2l0.8-0.4l1.6-0.8l3.2-1.6l0.8-0.4
					c0.3-0.1,0.4-0.2,0.5-0.4s0-0.4-0.1-0.5c-0.2-0.2-0.4-0.3-0.7-0.4l-3.2-1.6l-3.1-1.6c-0.3-0.1-0.6-0.4-0.7-0.7s-0.1-0.6-0.1-0.9
					l-0.2-1.7l-0.4-3.5l-0.2-1.7c-0.1-0.4-0.5-0.7-0.9-0.6c-0.2,0-0.3,0.1-0.4,0.2c0.3-0.3,0.8-0.3,1.1,0c0.1,0.1,0.2,0.3,0.2,0.5
					l0.3,1.7l0.6,3.5l0.2,1.7l0.1,0.9c0.1,0.2,0.2,0.4,0.5,0.5l3.2,1.5l3.2,1.5c0.3,0.1,0.6,0.3,0.8,0.5c0.3,0.3,0.4,0.7,0.2,1.1
					c-0.2,0.3-0.4,0.6-0.8,0.7l-0.8,0.4l-3.1,1.6l-1.6,0.8l-0.8,0.4l-0.4,0.2c-0.1,0-0.2,0.1-0.2,0.2c-0.1,0.1-0.1,0.2-0.1,0.3
					l-0.1,0.4l-0.1,0.9l-0.2,1.7l-0.5,3.5l-0.1,0.9c0,0.4-0.1,0.7-0.4,1s-0.7,0.3-1.1,0.1c-0.3-0.2-0.5-0.4-0.7-0.6l-2.4-2.5
					l-2.4-2.5c-0.1-0.2-0.4-0.3-0.6-0.3l-0.8,0.1l-1.7,0.3l-3.5,0.5l-1.7,0.3c-0.4,0-0.8-0.3-0.9-0.7
					C1857.7,205.3,1857.8,205.1,1857.9,204.9z"/>
				
					<linearGradient id="SVGID_12_" gradientUnits="userSpaceOnUse" x1="1738.2457" y1="435.5281" x2="1754.8956" y2="456.4581" gradientTransform="matrix(0.95 0.31 -0.31 0.95 350.67 -760.52)">
					<stop  offset="0" style="stop-color:#FFFFFF"/>
					<stop  offset="1" style="stop-color:#E8E8E8"/>
				</linearGradient>
				<path class="st13" d="M1867.1,204.9l5.5,5.6c0.3,0.3,0.8,0.3,1.1,0c0.1-0.1,0.2-0.3,0.2-0.5l1.1-7.8c0-0.3,0.2-0.5,0.4-0.6
					l7-3.5c0.4-0.2,0.6-0.7,0.4-1.1c-0.1-0.2-0.2-0.3-0.4-0.4l-7-3.4c-0.2-0.1-0.4-0.3-0.4-0.6l-1.2-7.7c-0.1-0.4-0.5-0.7-0.9-0.7
					c-0.2,0-0.3,0.1-0.5,0.2l-5.4,5.6c-0.2,0.2-0.4,0.3-0.7,0.2l-7.7-1.3c-0.4-0.1-0.8,0.2-0.9,0.6c0,0.2,0,0.3,0.1,0.5l3.7,6.9
					c0.1,0.2,0.1,0.5,0,0.7l-3.6,6.9c-0.2,0.4,0,0.9,0.3,1.1c0.2,0.1,0.3,0.1,0.5,0.1l7.7-1.4
					C1866.7,204.7,1866.9,204.8,1867.1,204.9z"/>
				<path class="st1" d="M864.5,257.6c0,0.2-0.2,0.5-0.4,0.6s-0.4,0.2-0.6,0.3l-1.3,0.5c-0.9,0.3-1.7,0.6-2.6,0.9s-1.8,0.5-2.6,0.7
					c-0.4,0.1-1,0.1-1.2,0.4c-0.3,0.3-0.3,0.8,0,1.1l0,0c-0.4-0.2-0.6-0.8-0.3-1.2c0,0,0-0.1,0.1-0.1c0.2-0.2,0.4-0.4,0.7-0.4
					l0.6-0.2c0.9-0.3,1.7-0.6,2.6-0.9s1.8-0.5,2.6-0.7l1.3-0.3C863.8,258.1,864.3,258.1,864.5,257.6z"/>
				<path class="st1" d="M862.7,275.9c0,0.5,0.4,0.8,0.8,0.8c0.2,0,0.3-0.1,0.5-0.2l1.5-1.1l3-2.3l1.5-1.1c0.3-0.2,0.5-0.4,0.8-0.6
					s0.7-0.2,1.1,0l3.5,1.2l3.5,1.2c0.3,0.1,0.5,0.2,0.8,0.2c0.2,0,0.4-0.1,0.5-0.3c0.1-0.2,0-0.4-0.1-0.7l-0.3-0.9l-1.2-3.5
					l-0.6-1.8l-0.3-0.9l-0.2-0.4c-0.1-0.2-0.1-0.4-0.1-0.6s0.1-0.4,0.2-0.6l0.3-0.4l0.6-0.7l1.1-1.5l2.2-3l0.6-0.7
					c0.2-0.3,0.3-0.4,0.3-0.6s-0.2-0.4-0.3-0.5c-0.3,0-0.5,0-0.8,0h-7.4c-0.4,0-0.7-0.1-1-0.4c-0.2-0.3-0.4-0.5-0.5-0.8l-1-1.5
					l-2.1-3.1l-1-1.6c-0.3-0.4-0.8-0.5-1.1-0.2c-0.1,0.1-0.3,0.2-0.3,0.4c0.1-0.5,0.6-0.7,1.1-0.6c0.2,0.1,0.3,0.2,0.4,0.3l1.1,1.5
					l2.2,3l1.1,1.5l0.5,0.7c0.2,0.2,0.4,0.3,0.7,0.2l3.7-0.1l3.7-0.1c0.3,0,0.7,0,1,0.1c0.4,0.2,0.7,0.5,0.7,0.9s-0.1,0.7-0.4,1
					l-0.6,0.8l-2.2,3l-1.2,1.4l-0.6,0.8l-0.3,0.4c-0.1,0.1-0.1,0.2-0.1,0.3c0,0.1,0,0.2,0,0.3l0.2,0.4l0.3,0.9l0.6,1.8l1.2,3.5
					l0.3,0.9c0.2,0.3,0.2,0.7,0.1,1.1c-0.2,0.4-0.6,0.6-1,0.7c-0.3,0-0.7-0.1-1-0.3l-3.4-1.2l-3.5-1.2c-0.2-0.1-0.5-0.1-0.7,0
					l-0.7,0.5l-1.5,1.1l-3,2.1l-1.5,1.1c-0.4,0.3-0.9,0.3-1.2-0.1C862.8,276.3,862.7,276.1,862.7,275.9z"/>
				
					<linearGradient id="SVGID_13_" gradientUnits="userSpaceOnUse" x1="1053.7284" y1="526.6527" x2="1071.3484" y2="548.8029" gradientTransform="matrix(0.99 -0.15 0.15 0.99 -261.66 -108.21)">
					<stop  offset="0" style="stop-color:#FFFFFF"/>
					<stop  offset="1" style="stop-color:#E8E8E8"/>
				</linearGradient>
				<path class="st14" d="M871.5,271.5l7.8,2.7c0.4,0.1,0.9-0.1,1.1-0.5c0.1-0.2,0.1-0.3,0-0.5l-2.6-7.9c-0.1-0.3,0-0.6,0.1-0.8
					l5-6.6c0.3-0.4,0.2-0.9-0.2-1.2c-0.1-0.1-0.3-0.2-0.5-0.2l-8.3,0.1c-0.3,0-0.5-0.1-0.7-0.4l-4.8-6.8c-0.3-0.4-0.8-0.5-1.2-0.2
					c-0.1,0.1-0.3,0.3-0.3,0.4l-2.5,7.9c-0.1,0.3-0.3,0.5-0.5,0.5l-8,2.4c-0.4,0.1-0.7,0.6-0.5,1.1c0.1,0.2,0.2,0.3,0.3,0.4l6.7,4.8
					c0.2,0.2,0.4,0.4,0.3,0.7l-0.1,8.3c0,0.5,0.4,0.8,0.8,0.8c0.2,0,0.4-0.1,0.5-0.2l6.7-4.9C870.9,271.5,871.2,271.4,871.5,271.5z"
					/>
			</g>
			<g id="snowfall">
				
					<linearGradient id="SVGID_14_" gradientUnits="userSpaceOnUse" x1="2240.5364" y1="341.0739" x2="2250.9163" y2="351.7739" gradientTransform="matrix(1 0 0 1 0 -270)">
					<stop  offset="0" style="stop-color:#FFFFFF"/>
					<stop  offset="1" style="stop-color:#E8E8E8"/>
				</linearGradient>
				<circle class="st15" cx="2245.8" cy="76.5" r="7.5"/>
				
					<linearGradient id="SVGID_15_" gradientUnits="userSpaceOnUse" x1="2046.3223" y1="292.2602" x2="2056.5422" y2="302.8002" gradientTransform="matrix(1 0 0 1 0 -270)">
					<stop  offset="0" style="stop-color:#FFFFFF"/>
					<stop  offset="1" style="stop-color:#E8E8E8"/>
				</linearGradient>
				<circle class="st16" cx="2051.5" cy="27.6" r="7.4"/>
				
					<linearGradient id="SVGID_16_" gradientUnits="userSpaceOnUse" x1="2280.8457" y1="413.2046" x2="2289.6956" y2="422.3346" gradientTransform="matrix(1 0 0 1 0 -270)">
					<stop  offset="0" style="stop-color:#FFFFFF"/>
					<stop  offset="1" style="stop-color:#E8E8E8"/>
				</linearGradient>
				<circle class="st17" cx="2285.3" cy="147.8" r="6.4"/>
				
					<linearGradient id="SVGID_17_" gradientUnits="userSpaceOnUse" x1="1162.1681" y1="608.9624" x2="1168.7881" y2="615.7924" gradientTransform="matrix(1 0 0 1 0 -270)">
					<stop  offset="0" style="stop-color:#FFFFFF"/>
					<stop  offset="1" style="stop-color:#E8E8E8"/>
				</linearGradient>
				<circle class="st18" cx="1165.5" cy="342.4" r="4.8"/>
				
					<linearGradient id="SVGID_18_" gradientUnits="userSpaceOnUse" x1="1608.437" y1="299.1226" x2="1615.9971" y2="306.9126" gradientTransform="matrix(1 0 0 1 0 -270)">
					<stop  offset="0" style="stop-color:#FFFFFF"/>
					<stop  offset="1" style="stop-color:#E8E8E8"/>
				</linearGradient>
				<circle class="st19" cx="1612.2" cy="33" r="5.5"/>
				
					<linearGradient id="SVGID_19_" gradientUnits="userSpaceOnUse" x1="1840.0502" y1="329.8999" x2="1849.5402" y2="339.6899" gradientTransform="matrix(1 0 0 1 0 -270)">
					<stop  offset="0" style="stop-color:#FFFFFF"/>
					<stop  offset="1" style="stop-color:#E8E8E8"/>
				</linearGradient>
				<circle class="st20" cx="1844.8" cy="64.8" r="6.9"/>
				
					<linearGradient id="SVGID_20_" gradientUnits="userSpaceOnUse" x1="1416.7408" y1="373.3195" x2="1424.5609" y2="381.3795" gradientTransform="matrix(1 0 0 1 0 -270)">
					<stop  offset="0" style="stop-color:#FFFFFF"/>
					<stop  offset="1" style="stop-color:#E8E8E8"/>
				</linearGradient>
				<circle class="st21" cx="1420.7" cy="107.4" r="5.7"/>
				
					<linearGradient id="SVGID_21_" gradientUnits="userSpaceOnUse" x1="1681.3655" y1="280.2043" x2="1691.5654" y2="290.7244" gradientTransform="matrix(1 0 0 1 0 -270)">
					<stop  offset="0" style="stop-color:#FFFFFF"/>
					<stop  offset="1" style="stop-color:#E8E8E8"/>
				</linearGradient>
				<circle class="st22" cx="1686.5" cy="15.5" r="7.4"/>
				
					<linearGradient id="SVGID_22_" gradientUnits="userSpaceOnUse" x1="1351.1724" y1="301.1265" x2="1360.3724" y2="310.6165" gradientTransform="matrix(1 0 0 1 0 -270)">
					<stop  offset="0" style="stop-color:#FFFFFF"/>
					<stop  offset="1" style="stop-color:#E8E8E8"/>
				</linearGradient>
				<circle class="st23" cx="1355.8" cy="35.9" r="6.7"/>
				
					<linearGradient id="SVGID_23_" gradientUnits="userSpaceOnUse" x1="1522.0479" y1="509.6621" x2="1527.5078" y2="515.2921" gradientTransform="matrix(1 0 0 1 0 -270)">
					<stop  offset="0" style="stop-color:#FFFFFF"/>
					<stop  offset="1" style="stop-color:#E8E8E8"/>
				</linearGradient>
				<circle class="st24" cx="1524.8" cy="242.5" r="4"/>
				
					<linearGradient id="SVGID_24_" gradientUnits="userSpaceOnUse" x1="1982.1675" y1="586.6825" x2="1987.6375" y2="592.3224" gradientTransform="matrix(1 0 0 1 0 -270)">
					<stop  offset="0" style="stop-color:#FFFFFF"/>
					<stop  offset="1" style="stop-color:#E8E8E8"/>
				</linearGradient>
				<circle class="st25" cx="1984.9" cy="319.5" r="4"/>
				
					<linearGradient id="SVGID_25_" gradientUnits="userSpaceOnUse" x1="1323.7657" y1="586.0641" x2="1330.3257" y2="592.8242" gradientTransform="matrix(1 0 0 1 0 -270)">
					<stop  offset="0" style="stop-color:#FFFFFF"/>
					<stop  offset="1" style="stop-color:#E8E8E8"/>
				</linearGradient>
				<circle class="st26" cx="1327.1" cy="319.5" r="4.8"/>
				
					<linearGradient id="SVGID_26_" gradientUnits="userSpaceOnUse" x1="1917.2042" y1="527.8293" x2="1921.9943" y2="532.7693" gradientTransform="matrix(1 0 0 1 0 -270)">
					<stop  offset="0" style="stop-color:#FFFFFF"/>
					<stop  offset="1" style="stop-color:#E8E8E8"/>
				</linearGradient>
				<circle class="st27" cx="1919.6" cy="260.3" r="3.5"/>
				
					<linearGradient id="SVGID_27_" gradientUnits="userSpaceOnUse" x1="1316.9238" y1="278.0367" x2="1328.5438" y2="290.0267" gradientTransform="matrix(1 0 0 1 0 -270)">
					<stop  offset="0" style="stop-color:#FFFFFF"/>
					<stop  offset="1" style="stop-color:#E8E8E8"/>
				</linearGradient>
				<circle class="st28" cx="1322.8" cy="14.1" r="8.4"/>
				
					<linearGradient id="SVGID_28_" gradientUnits="userSpaceOnUse" x1="2259.3818" y1="502.066" x2="2266.9617" y2="509.876" gradientTransform="matrix(1 0 0 1 0 -270)">
					<stop  offset="0" style="stop-color:#FFFFFF"/>
					<stop  offset="1" style="stop-color:#E8E8E8"/>
				</linearGradient>
				<circle class="st29" cx="2263.2" cy="236" r="5.5"/>
				
					<linearGradient id="SVGID_29_" gradientUnits="userSpaceOnUse" x1="1150.8439" y1="299.5065" x2="1166.194" y2="315.3265" gradientTransform="matrix(1 0 0 1 0 -270)">
					<stop  offset="0" style="stop-color:#FFFFFF"/>
					<stop  offset="1" style="stop-color:#E8E8E8"/>
				</linearGradient>
				<circle class="st30" cx="1158.6" cy="37.5" r="11.1"/>
				
					<linearGradient id="SVGID_30_" gradientUnits="userSpaceOnUse" x1="2102.0078" y1="451.4118" x2="2107.9277" y2="457.5218" gradientTransform="matrix(1 0 0 1 0 -270)">
					<stop  offset="0" style="stop-color:#FFFFFF"/>
					<stop  offset="1" style="stop-color:#E8E8E8"/>
				</linearGradient>
				<circle class="st31" cx="2105" cy="184.5" r="4.3"/>
				
					<linearGradient id="SVGID_31_" gradientUnits="userSpaceOnUse" x1="1951.5184" y1="384.0918" x2="1959.5685" y2="392.3918" gradientTransform="matrix(1 0 0 1 0 -270)">
					<stop  offset="0" style="stop-color:#FFFFFF"/>
					<stop  offset="1" style="stop-color:#E8E8E8"/>
				</linearGradient>
				<circle class="st32" cx="1955.6" cy="118.3" r="5.8"/>
				
					<linearGradient id="SVGID_32_" gradientUnits="userSpaceOnUse" x1="1965.0735" y1="283.807" x2="1975.6334" y2="294.697" gradientTransform="matrix(1 0 0 1 0 -270)">
					<stop  offset="0" style="stop-color:#FFFFFF"/>
					<stop  offset="1" style="stop-color:#E8E8E8"/>
				</linearGradient>
				<circle class="st33" cx="1970.4" cy="19.3" r="7.7"/>
				
					<linearGradient id="SVGID_33_" gradientUnits="userSpaceOnUse" x1="1505.5812" y1="302.9786" x2="1518.4512" y2="316.2486" gradientTransform="matrix(1 0 0 1 0 -270)">
					<stop  offset="0" style="stop-color:#FFFFFF"/>
					<stop  offset="1" style="stop-color:#E8E8E8"/>
				</linearGradient>
				<circle class="st34" cx="1512.1" cy="39.7" r="9.3"/>
				
					<linearGradient id="SVGID_34_" gradientUnits="userSpaceOnUse" x1="1799.5536" y1="321.2159" x2="1814.8737" y2="337.0059" gradientTransform="matrix(1 0 0 1 0 -270)">
					<stop  offset="0" style="stop-color:#FFFFFF"/>
					<stop  offset="1" style="stop-color:#E8E8E8"/>
				</linearGradient>
				<circle class="st35" cx="1807.3" cy="59.2" r="11.1"/>
				
					<linearGradient id="SVGID_35_" gradientUnits="userSpaceOnUse" x1="1124.7073" y1="342.3523" x2="1134.4873" y2="352.4423" gradientTransform="matrix(1 0 0 1 0 -270)">
					<stop  offset="0" style="stop-color:#FFFFFF"/>
					<stop  offset="1" style="stop-color:#E8E8E8"/>
				</linearGradient>
				<circle class="st36" cx="1129.6" cy="77.4" r="7.1"/>
				
					<linearGradient id="SVGID_36_" gradientUnits="userSpaceOnUse" x1="1229.7327" y1="447.4277" x2="1236.2727" y2="454.1777" gradientTransform="matrix(1 0 0 1 0 -270)">
					<stop  offset="0" style="stop-color:#FFFFFF"/>
					<stop  offset="1" style="stop-color:#E8E8E8"/>
				</linearGradient>
				<circle class="st37" cx="1233" cy="180.8" r="4.8"/>
				
					<linearGradient id="SVGID_37_" gradientUnits="userSpaceOnUse" x1="1262.4197" y1="433.0578" x2="1272.4597" y2="443.4178" gradientTransform="matrix(1 0 0 1 0 -270)">
					<stop  offset="0" style="stop-color:#FFFFFF"/>
					<stop  offset="1" style="stop-color:#E8E8E8"/>
				</linearGradient>
				<circle class="st38" cx="1267.5" cy="168.3" r="7.3"/>
				
					<linearGradient id="SVGID_38_" gradientUnits="userSpaceOnUse" x1="16.2752" y1="400.6749" x2="22.9052" y2="407.5049" gradientTransform="matrix(1 0 0 1 0 -270)">
					<stop  offset="0" style="stop-color:#FFFFFF"/>
					<stop  offset="1" style="stop-color:#E8E8E8"/>
				</linearGradient>
				<circle class="st39" cx="19.6" cy="134.1" r="4.8"/>
				
					<radialGradient id="SVGID_39_" cx="129.93" cy="330.47" r="4.88" gradientTransform="matrix(1 0 0 1 0 -270)" gradientUnits="userSpaceOnUse">
					<stop  offset="0" style="stop-color:#B3B3B3"/>
					<stop  offset="0.12" style="stop-color:#C6C6C6"/>
					<stop  offset="0.32" style="stop-color:#DFDFDF"/>
					<stop  offset="0.53" style="stop-color:#F1F1F1"/>
					<stop  offset="0.75" style="stop-color:#FCFCFC"/>
					<stop  offset="1" style="stop-color:#FFFFFF"/>
				</radialGradient>
				<circle class="st40" cx="129.9" cy="60.5" r="4.9"/>
				
					<linearGradient id="SVGID_40_" gradientUnits="userSpaceOnUse" x1="124.4778" y1="328.0714" x2="131.0378" y2="334.8415" gradientTransform="matrix(1 0 0 1 0 -270)">
					<stop  offset="0" style="stop-color:#FFFFFF"/>
					<stop  offset="1" style="stop-color:#E8E8E8"/>
				</linearGradient>
				<circle class="st41" cx="127.8" cy="61.5" r="4.8"/>
				
					<linearGradient id="SVGID_41_" gradientUnits="userSpaceOnUse" x1="56.5932" y1="307.2266" x2="67.3032" y2="318.2666" gradientTransform="matrix(1 0 0 1 0 -270)">
					<stop  offset="0" style="stop-color:#FFFFFF"/>
					<stop  offset="1" style="stop-color:#E8E8E8"/>
				</linearGradient>
				<circle class="st42" cx="62" cy="42.8" r="7.8"/>
				
					<linearGradient id="SVGID_42_" gradientUnits="userSpaceOnUse" x1="1050.8201" y1="293.1086" x2="1064.2902" y2="306.9987" gradientTransform="matrix(1 0 0 1 0 -270)">
					<stop  offset="0" style="stop-color:#FFFFFF"/>
					<stop  offset="1" style="stop-color:#E8E8E8"/>
				</linearGradient>
				<circle class="st43" cx="1057.6" cy="30.1" r="9.8"/>
				
					<linearGradient id="SVGID_43_" gradientUnits="userSpaceOnUse" x1="2163.7124" y1="310.3266" x2="2175.6323" y2="322.6165" gradientTransform="matrix(1 0 0 1 0 -270)">
					<stop  offset="0" style="stop-color:#FFFFFF"/>
					<stop  offset="1" style="stop-color:#E8E8E8"/>
				</linearGradient>
				<circle class="st44" cx="2169.7" cy="46.5" r="8.6"/>
				
					<linearGradient id="SVGID_44_" gradientUnits="userSpaceOnUse" x1="783.7726" y1="274.2171" x2="793.9927" y2="284.7471" gradientTransform="matrix(1 0 0 1 0 -270)">
					<stop  offset="0" style="stop-color:#FFFFFF"/>
					<stop  offset="1" style="stop-color:#E8E8E8"/>
				</linearGradient>
				<circle class="st45" cx="788.9" cy="9.5" r="7.4"/>
				
					<linearGradient id="SVGID_45_" gradientUnits="userSpaceOnUse" x1="1697.6661" y1="545.9707" x2="1703.9061" y2="552.4007" gradientTransform="matrix(1 0 0 1 0 -270)">
					<stop  offset="0" style="stop-color:#FFFFFF"/>
					<stop  offset="1" style="stop-color:#E8E8E8"/>
				</linearGradient>
				<circle class="st46" cx="1700.8" cy="279.2" r="4.5"/>
				
					<linearGradient id="SVGID_46_" gradientUnits="userSpaceOnUse" x1="1532.4384" y1="286.1725" x2="1542.8984" y2="296.9624" gradientTransform="matrix(1 0 0 1 0 -270)">
					<stop  offset="0" style="stop-color:#FFFFFF"/>
					<stop  offset="1" style="stop-color:#E8E8E8"/>
				</linearGradient>
				<circle class="st47" cx="1537.7" cy="21.6" r="7.6"/>
				
					<linearGradient id="SVGID_47_" gradientUnits="userSpaceOnUse" x1="851.2956" y1="419.6452" x2="860.4855" y2="429.1353" gradientTransform="matrix(1 0 0 1 0 -270)">
					<stop  offset="0" style="stop-color:#FFFFFF"/>
					<stop  offset="1" style="stop-color:#E8E8E8"/>
				</linearGradient>
				<circle class="st48" cx="855.9" cy="154.4" r="6.7"/>
				
					<radialGradient id="SVGID_48_" cx="855.9" cy="394.84" r="9.19" gradientTransform="matrix(1 0 0 1 0 -270)" gradientUnits="userSpaceOnUse">
					<stop  offset="0" style="stop-color:#E6E6E6"/>
					<stop  offset="0.23" style="stop-color:#F1F1F1"/>
					<stop  offset="0.59" style="stop-color:#FCFCFC"/>
					<stop  offset="1" style="stop-color:#FFFFFF"/>
				</radialGradient>
				<circle class="st49" cx="855.9" cy="124.8" r="9.2"/>
				
					<linearGradient id="SVGID_49_" gradientUnits="userSpaceOnUse" x1="1596.6302" y1="284.4092" x2="1610.5002" y2="298.7192" gradientTransform="matrix(1 0 0 1 0 -270)">
					<stop  offset="0" style="stop-color:#FFFFFF"/>
					<stop  offset="1" style="stop-color:#E8E8E8"/>
				</linearGradient>
				<circle class="st50" cx="1603.6" cy="21.6" r="10.1"/>
				
					<linearGradient id="SVGID_50_" gradientUnits="userSpaceOnUse" x1="1.6716" y1="368.1512" x2="9.3016" y2="376.0211" gradientTransform="matrix(1 0 0 1 0 -270)">
					<stop  offset="0" style="stop-color:#FFFFFF"/>
					<stop  offset="1" style="stop-color:#E8E8E8"/>
				</linearGradient>
				<circle class="st51" cx="5.5" cy="102.1" r="5.5"/>
				
					<linearGradient id="SVGID_51_" gradientUnits="userSpaceOnUse" x1="774.5399" y1="597.3242" x2="782.0099" y2="605.0242" gradientTransform="matrix(1 0 0 1 0 -270)">
					<stop  offset="0" style="stop-color:#FFFFFF"/>
					<stop  offset="1" style="stop-color:#E8E8E8"/>
				</linearGradient>
				<circle class="st52" cx="778.3" cy="331.2" r="5.4"/>
				
					<linearGradient id="SVGID_52_" gradientUnits="userSpaceOnUse" x1="111.6268" y1="312.4611" x2="121.9268" y2="323.0911" gradientTransform="matrix(1 0 0 1 0 -270)">
					<stop  offset="0" style="stop-color:#FFFFFF"/>
					<stop  offset="1" style="stop-color:#E8E8E8"/>
				</linearGradient>
				<circle class="st53" cx="116.8" cy="47.8" r="7.5"/>
				
					<linearGradient id="SVGID_53_" gradientUnits="userSpaceOnUse" x1="802.7085" y1="568.2628" x2="812.0485" y2="577.8928" gradientTransform="matrix(1 0 0 1 0 -270)">
					<stop  offset="0" style="stop-color:#FFFFFF"/>
					<stop  offset="1" style="stop-color:#E8E8E8"/>
				</linearGradient>
				<circle class="st54" cx="807.4" cy="303.1" r="6.8"/>
				
					<linearGradient id="SVGID_54_" gradientUnits="userSpaceOnUse" x1="58.4949" y1="551.3481" x2="67.9949" y2="561.1382" gradientTransform="matrix(1 0 0 1 0 -270)">
					<stop  offset="0" style="stop-color:#FFFFFF"/>
					<stop  offset="1" style="stop-color:#E8E8E8"/>
				</linearGradient>
				<circle class="st55" cx="63.3" cy="286.3" r="6.9"/>
				
					<linearGradient id="SVGID_55_" gradientUnits="userSpaceOnUse" x1="310.222" y1="311.1068" x2="317.762" y2="318.8767" gradientTransform="matrix(1 0 0 1 0 -270)">
					<stop  offset="0" style="stop-color:#FFFFFF"/>
					<stop  offset="1" style="stop-color:#E8E8E8"/>
				</linearGradient>
				<circle class="st56" cx="314" cy="45" r="5.5"/>
				
					<linearGradient id="SVGID_56_" gradientUnits="userSpaceOnUse" x1="269.7686" y1="286.3422" x2="278.1386" y2="294.9623" gradientTransform="matrix(1 0 0 1 0 -270)">
					<stop  offset="0" style="stop-color:#FFFFFF"/>
					<stop  offset="1" style="stop-color:#E8E8E8"/>
				</linearGradient>
				<circle class="st57" cx="274" cy="20.7" r="6.1"/>
				
					<linearGradient id="SVGID_57_" gradientUnits="userSpaceOnUse" x1="261.2058" y1="295.6137" x2="273.8558" y2="308.6437" gradientTransform="matrix(1 0 0 1 0 -270)">
					<stop  offset="0" style="stop-color:#FFFFFF"/>
					<stop  offset="1" style="stop-color:#E8E8E8"/>
				</linearGradient>
				<circle class="st58" cx="267.6" cy="32.2" r="9.2"/>
				
					<linearGradient id="SVGID_58_" gradientUnits="userSpaceOnUse" x1="518.1427" y1="710.5674" x2="522.6427" y2="715.2174" gradientTransform="matrix(1 0 0 1 0 -270)">
					<stop  offset="0" style="stop-color:#FFFFFF"/>
					<stop  offset="1" style="stop-color:#E8E8E8"/>
				</linearGradient>
				<circle class="st59" cx="520.4" cy="442.9" r="3.3"/>
				
					<linearGradient id="SVGID_59_" gradientUnits="userSpaceOnUse" x1="516.0549" y1="277.5948" x2="526.145" y2="288.005" gradientTransform="matrix(1 0 0 1 0 -270)">
					<stop  offset="0" style="stop-color:#FFFFFF"/>
					<stop  offset="1" style="stop-color:#E8E8E8"/>
				</linearGradient>
				<circle class="st60" cx="521.1" cy="12.8" r="7.3"/>
				
					<linearGradient id="SVGID_60_" gradientUnits="userSpaceOnUse" x1="465.1655" y1="310.865" x2="471.6055" y2="317.505" gradientTransform="matrix(1 0 0 1 0 -270)">
					<stop  offset="0" style="stop-color:#FFFFFF"/>
					<stop  offset="1" style="stop-color:#E8E8E8"/>
				</linearGradient>
				<circle class="st61" cx="468.4" cy="44.2" r="4.7"/>
				
					<linearGradient id="SVGID_61_" gradientUnits="userSpaceOnUse" x1="19.2107" y1="259.8991" x2="44.6407" y2="286.1191" gradientTransform="matrix(1 0 0 1 0 -270)">
					<stop  offset="0" style="stop-color:#FFFFFF"/>
					<stop  offset="1" style="stop-color:#E8E8E8"/>
				</linearGradient>
				<path class="st62" d="M33.5,20.1c10.2,0,18.4-8.2,18.4-18.4c0-0.6,0-1.1-0.1-1.7H15.1c0,0.6-0.1,1.1-0.1,1.7
					C15.1,11.8,23.3,20.1,33.5,20.1z"/>
			</g>
		</g>
	</g>
</g>
</svg>
